<svg width="1em" height="1em" viewBox="0 0 132 32" fill="none" role="img" style="width:132px;height:32px"><path fill-rule="evenodd" clip-rule="evenodd" d="M32.7586 0C31.9937 0 31.3748 0.62813 31.3748 1.40855V20.9488H24.9583C22.0366 20.9488 19.656 18.5286 19.656 15.5535C19.656 12.5771 22.0366 10.1588 24.9583 10.1588C25.6388 10.1588 26.2968 10.287 26.9138 10.5335C25.8811 12.033 24.1083 14.6088 22.5343 16.8932C22.0956 17.5308 22.2491 18.4091 22.8754 18.8546C23.5012 19.3008 24.363 19.1472 24.803 18.5065C24.803 18.5065 24.8123 18.4944 24.8303 18.4685L24.8316 18.4679L30.0543 10.8792C30.0593 10.8716 30.063 10.8678 30.0674 10.8602H30.0686C30.2693 10.5562 30.3408 10.2011 30.2911 9.86366V9.8605L30.2886 9.85987V9.85798V9.85671V9.85608V9.85418V9.85355V9.85102C30.2756 9.76571 30.2532 9.6804 30.2246 9.59699V9.59636L30.2234 9.59383V9.5913V9.58878C30.1308 9.33601 29.968 9.10599 29.7393 8.93726C28.3449 7.89459 26.6939 7.3423 24.9583 7.3423C20.5092 7.3423 16.8859 11.0245 16.8859 15.5535C16.8859 20.0806 20.5092 23.7647 24.9583 23.7647H32.7586C33.5223 23.7647 34.1437 23.134 34.1437 22.3555V1.40855C34.1437 0.62813 33.5223 0 32.7586 0ZM8.0737 7.34331C7.054 7.34331 6.05854 7.53479 5.11714 7.91141C4.40565 8.19641 4.05643 9.01348 4.33667 9.73577C4.61567 10.4606 5.41851 10.8164 6.13062 10.5314C6.75014 10.283 7.40322 10.1598 8.0737 10.1598C10.998 10.1598 13.3797 12.5782 13.3797 15.5545C13.3797 18.5296 10.998 20.9498 8.0737 20.9498C5.14758 20.9498 2.76767 18.5296 2.76767 15.5545V1.40957C2.76767 0.629148 2.14876 0.00101839 1.38383 0.00101839C0.621389 0.00101839 0 0.629148 0 1.40957V15.5545C0 20.0816 3.61959 23.7657 8.0737 23.7657C12.5253 23.7657 16.1474 20.0816 16.1474 15.5545C16.1474 11.0255 12.5253 7.34331 8.0737 7.34331ZM56.1252 7.3418C51.6904 7.3418 48.0814 10.9994 48.0559 15.5062C48.0559 15.522 48.0515 15.5372 48.0515 15.553V15.649C48.0012 18.5793 45.6412 20.9483 42.7461 20.9483C39.8206 20.9483 37.4395 18.5281 37.4395 15.553C37.4395 12.5766 39.8206 10.1583 42.7461 10.1583H48.7096C49.4739 10.1583 50.094 9.52572 50.094 8.74972C50.094 7.97245 49.4739 7.3418 48.7096 7.3418H42.7461C38.2939 7.3418 34.6718 11.024 34.6718 15.553C34.6718 20.0801 38.2939 23.7642 42.7461 23.7642C44.7762 23.7642 46.6304 22.9989 48.0515 21.737V23.7876C48.0515 26.7639 45.671 29.1842 42.7461 29.1842C39.8206 29.1842 37.4395 26.7639 37.4395 23.7876C37.4395 23.009 36.8199 22.3796 36.0556 22.3796C35.2907 22.3796 34.6712 23.009 34.6712 23.7876C34.6712 28.314 38.2939 32 42.7461 32C47.1984 32 50.8204 28.314 50.8204 23.7876V21.7262C52.2409 22.9913 54.0939 23.7642 56.1252 23.7642C57.4743 23.7642 58.8078 23.4204 59.9841 22.7683C60.6564 22.3942 60.9025 21.5398 60.5383 20.8561C60.1711 20.1761 59.3316 19.924 58.6605 20.2962C57.8875 20.7234 57.012 20.9483 56.1252 20.9483C53.2022 20.9483 50.8204 18.5281 50.8204 15.553C50.8204 12.5766 53.2022 10.1583 56.1252 10.1583C59.0532 10.1583 61.4338 12.5766 61.4338 15.553V22.3322C61.4338 23.1101 62.0527 23.7402 62.817 23.7402C63.5807 23.7402 64.2014 23.1101 64.2014 22.3322V15.553C64.2014 11.024 60.5787 7.3418 56.1252 7.3418Z" fill="#3349E8"></path></svg>